<?xml version="1.0" encoding="UTF-8"?>
<svg xmlns="http://www.w3.org/2000/svg" xmlns:xlink="http://www.w3.org/1999/xlink" width="0" height="0">
<symbol id="cancel" width="33" height="33" viewBox="0 0 33 33" fill="none"><line x1="8.48535" y1="23.3346" x2="23.3346" y2="8.48532" stroke-width="2" stroke-linecap="round"/><line x1="23.3343" y1="24.0415" x2="8.48508" y2="9.19226" stroke-width="2" stroke-linecap="round"/></symbol><symbol id="delete" width="24" height="24" viewBox="0 0 24 24" fill="none"><path d="M6.5 7.5H17.5V19C17.5 19.8284 16.8284 20.5 16 20.5H8C7.17157 20.5 6.5 19.8284 6.5 19V7.5Z" stroke-opacity="0.6"/><path d="M5 6V4H8.5L9.5 3H14.5L15.5 4H19V6H5Z" stroke-opacity="0.6"/></symbol><symbol id="message" width="35" height="35" viewBox="0 0 35 35" fill="none"><path fill-rule="evenodd" clip-rule="evenodd" d="M18.5039 16.5029H11.4995L7.49699 19.5047V16.5029H5.49574C4.94311 16.5029 4.49512 16.0549 4.49512 15.5022V5.49599C4.49512 4.94336 4.94311 4.49536 5.49574 4.49536H18.5039C19.0565 4.49536 19.5045 4.94336 19.5045 5.49599V15.5022C19.5045 16.0549 19.0565 16.5029 18.5039 16.5029Z" stroke-width="1.5"/><path d="M7.49707 8.99829H16.5027" stroke-width="1.5"/><path d="M7.49707 12H14.5014" stroke-width="1.5"/></symbol><symbol id="pencil-write" width="35" height="35" viewBox="0 0 35 35" fill="none"><path fill-rule="evenodd" clip-rule="evenodd" d="M15.8711 16.7812L12.7759 17.224L13.2178 14.1279L21.1778 6.16793C21.9105 5.43523 23.0984 5.43523 23.8311 6.16793C24.5638 6.90062 24.5638 8.08856 23.8311 8.82125L15.8711 16.7812Z" stroke-width="1.5"/><path d="M20.2935 7.05273L22.9468 9.70606" stroke-width="1.5"/><path d="M20.6285 16.8763V23.1302C20.6285 23.821 20.0685 24.381 19.3777 24.381H6.86992C6.17913 24.381 5.61914 23.821 5.61914 23.1302V10.6224C5.61914 9.93158 6.17913 9.37158 6.86992 9.37158H13.1238" stroke-width="1.5"/></symbol><symbol id="user-placeholder" width="25" height="24" viewBox="0 0 25 24" fill="none"><path d="M22.3176 12C22.3176 17.5225 17.8401 22 12.3176 22C6.79513 22 2.31763 17.5225 2.31763 12C2.31763 6.4775 6.79513 2 12.3176 2C17.8401 2 22.3176 6.4775 22.3176 12Z"/><path fill-rule="evenodd" clip-rule="evenodd" d="M19.9146 18.5028C18.0805 20.6435 15.3574 22 12.3176 22C9.27806 22 6.55506 20.6436 4.72095 18.5031C6.01201 16.6171 10.0903 15.6677 12.3179 15.6677C14.5453 15.6677 18.6233 16.617 19.9146 18.5028ZM11.613 6.07745C11.711 6.03245 11.8146 6.00753 11.9168 6.00148C12.2234 5.98333 12.5281 6.13266 12.7068 6.40608L13.2068 7.17111C13.933 7.17111 15.8734 7.9446 15.8734 10.3355C15.8734 12.464 14.0685 14.1625 11.9307 13.9327C9.79738 13.7029 8.42491 11.4881 8.8578 9.34959C9.24535 7.43635 10.7188 6.48724 11.613 6.07745Z"/></symbol></svg>
