<svg width="25" height="24" viewBox="0 0 25 24" fill="none" xmlns="http://www.w3.org/2000/svg">
<path d="M22.3176 12C22.3176 17.5225 17.8401 22 12.3176 22C6.79513 22 2.31763 17.5225 2.31763 12C2.31763 6.4775 6.79513 2 12.3176 2C17.8401 2 22.3176 6.4775 22.3176 12Z" fill="#DEE5EF"/>
<path fill-rule="evenodd" clip-rule="evenodd" d="M19.9146 18.5028C18.0805 20.6435 15.3574 22 12.3176 22C9.27806 22 6.55506 20.6436 4.72095 18.5031C6.01201 16.6171 10.0903 15.6677 12.3179 15.6677C14.5453 15.6677 18.6233 16.617 19.9146 18.5028ZM11.613 6.07745C11.711 6.03245 11.8146 6.00753 11.9168 6.00148C12.2234 5.98333 12.5281 6.13266 12.7068 6.40608L13.2068 7.17111C13.933 7.17111 15.8734 7.9446 15.8734 10.3355C15.8734 12.464 14.0685 14.1625 11.9307 13.9327C9.79738 13.7029 8.42491 11.4881 8.8578 9.34959C9.24535 7.43635 10.7188 6.48724 11.613 6.07745Z" fill="#A4B0C0"/>
</svg>
